<svg xmlns="http://www.w3.org/2000/svg" xmlns:xlink="http://www.w3.org/1999/xlink" height="400px" version="1.1" viewBox="0 0 400 400" width="400px"><title/><desc/><defs><filter filterUnits="objectBoundingBox" height="200%" id="filter-1" width="200%" x="-50%" y="-50%"><feOffset dx="0" dy="4" in="SourceAlpha" result="shadowOffsetOuter1"/><feGaussianBlur in="shadowOffsetOuter1" result="shadowBlurOuter1" stdDeviation="2"/><feColorMatrix in="shadowBlurOuter1" result="shadowMatrixOuter1" type="matrix" values="0 0 0 0 0   0 0 0 0 0   0 0 0 0 0  0 0 0 0.5 0"/><feMerge><feMergeNode in="shadowMatrixOuter1"/><feMergeNode in="SourceGraphic"/></feMerge></filter></defs><g fill="none" fill-rule="evenodd" id="Page-1" stroke="none" stroke-width="1"><g id="melody"><path d="M200,400 C310.45695,400 400,310.45695 400,200 C400,89.54305 310.45695,0 200,0 C89.54305,0 0,89.54305 0,200 C0,310.45695 89.54305,400 200,400 Z" fill="#AAD8B0" id="Oval-6"/><g filter="url(#filter-1)" id="Music-note-Copy" transform="translate(71.000000, 74.000000)"><polygon fill="#67ADD5" id="Rectangle-130" points="68.7272727 74.4545455 252 40.0909091 252 57.2727273 68.7272727 91.6363636"/><polygon fill="#67ADD5" id="Rectangle-130-Copy" points="68.7272727 34.3636364 252 0 252 22.9090909 68.7272727 57.2727273"/><g id="2-note" transform="translate(0.000000, 51.545455)"><rect fill="#67ADD5" height="171.818182" id="Rectangle-128" width="11.4545455" x="68.7272727" y="0"/><ellipse cx="40.0909091" cy="171.818182" fill="#697F9B" id="Oval-46" rx="40.0909091" ry="28.6363636"/></g><g id="1-note" transform="translate(171.818182, 22.909091)"><rect fill="#67ADD5" height="171.818182" id="Rectangle-128-Copy" width="11.4545455" x="68.7272727" y="0"/><ellipse cx="40.0909091" cy="171.818182" fill="#697F9B" id="Oval-46-Copy" rx="40.0909091" ry="28.6363636"/></g></g></g></g></svg>